# xmcd CD database file generated by Grip 3.2.0
# 
# Track frame offsets:
#       150
#       22989
#       43508
#       63043
#       88052
#       110696
#       144290
#       163133
#       183606
#       207177
#       231382
#       265157
#       289229
#       312384
# 
# Disc length: 4387 seconds
# 
# Revision: 3
# Processed by: cddbd v1.5.2PL0 Copyright (c) Steve Scherf et al.
# Submitted via: Grip 3.2.0
# 
DISCID=c911210e
DTITLE=Cafe del Mar - Dreams 4 - CD1
DYEAR=2006
DGENRE=Ambient
TTITLE0=Gary B - It's Alright
TTITLE1=DJ Ino Marcelino Galan - Linda
TTITLE2=Luminous - Feel Safe
TTITLE3=Mads Arp feat. Julie Harrington - Alive
TTITLE4=Gelka - Rising
TTITLE5=Pshycodelic Farm - El Sonho
TTITLE6=Sonic Adventure Project - Inner Journey (Remix)
TTITLE7=Ludvig and Stelar - Sunset
TTITLE8=Alejandro De Pinedo - Cancer
TTITLE9=Melibea - Fusion
TTITLE10=Florian Sagner's Groove Deepartment - Deep Breath
TTITLE11=Nouvelle Vedette feat. Fleur Sanderson - Dreaming
TTITLE12=Koru - Submariner
TTITLE13=Camino Del Sol - L'Etoile d'Or (Estrela de Ouro)
EXTD=YEAR: 2006
EXTT0=
EXTT1=
EXTT2=
EXTT3=
EXTT4=
EXTT5=
EXTT6=
EXTT7=
EXTT8=
EXTT9=
EXTT10=
EXTT11=
EXTT12=
EXTT13=
PLAYORDER=
